<svg xmlns="http://www.w3.org/2000/svg" width="301" height="301" viewBox="0 0 301 301" fill="none"><path opacity="0.1" fill-rule="evenodd" clip-rule="evenodd" d="M120.118 300.696C80.2062 297.589 48.2431 267.629 25.1282 234.943C5.75813 207.554 2.57148 173.277 6.4408 139.954C9.81741 110.874 28.7672 89.162 44.8927 64.7282C68.3257 29.2219 77.5987 -0.342437 120.118 1.03777C162.99 2.42942 160.099 39.3115 190.613 69.4584C221.554 100.026 284.983 97.5051 294.462 139.954C304.114 183.179 263.71 220.961 231.148 250.983C200.155 279.558 162.146 303.968 120.118 300.696Z" fill="#32DE84"></path><g clip-path="url(#clip0_194_3)"><path d="M51.5936 204.71C43.9531 204.71 36.0967 210.833 36.0967 221.55C36.0967 231.347 43.0043 238.267 51.5936 238.267C58.6837 238.267 61.8436 233.508 61.8436 233.508V235.582C61.8436 236.563 62.7706 237.657 63.918 237.657H69.043V205.443H61.8436V209.53C61.8436 209.53 58.6572 204.71 51.5936 204.71ZM52.8761 211.298C59.1658 211.298 62.4651 216.829 62.4651 221.547C62.4651 226.803 58.5478 231.793 52.8894 231.793C48.1593 231.793 43.4212 227.963 43.4212 221.478C43.4212 215.624 47.4987 211.298 52.8761 211.298Z" fill="black"></path><path d="M79.049 237.657C77.9429 237.657 76.9746 236.863 76.9746 235.582V205.443H84.174V209.429C85.8053 206.977 88.9926 204.701 93.8847 204.701C101.88 204.701 106.138 211.075 106.138 217.035V237.657H101.135C99.8234 237.657 98.9388 236.559 98.9388 235.46V218.621C98.9388 215.317 96.9146 211.305 92.2332 211.305C87.1818 211.305 84.174 216.079 84.174 220.574V237.657H79.049Z" fill="black"></path><path d="M127.126 204.71C119.485 204.71 111.629 210.833 111.629 221.55C111.629 231.347 118.537 238.267 127.126 238.267C134.216 238.267 137.376 233.508 137.376 233.508V235.582C137.376 236.563 138.303 237.657 139.45 237.657H144.575V189.336H137.376V209.53C137.376 209.53 134.189 204.71 127.126 204.71ZM128.408 211.298C134.698 211.298 137.997 216.829 137.997 221.547C137.997 226.803 134.08 231.793 128.422 231.793C123.692 231.793 118.953 227.963 118.953 221.478C118.953 215.624 123.031 211.298 128.408 211.298V211.298Z" fill="black"></path><path d="M154.581 237.657C153.475 237.657 152.507 236.863 152.507 235.582V205.443H159.706V210.812C160.945 207.804 163.619 205.077 168.37 205.077C169.694 205.077 170.932 205.321 170.932 205.321V212.764C170.932 212.764 169.386 212.154 167.516 212.154C162.464 212.154 159.706 216.928 159.706 221.422V237.657H154.581Z" fill="black"></path><path d="M214.617 237.657C213.511 237.657 212.542 236.863 212.542 235.582V205.443H219.742V237.657H214.617Z" fill="black"></path><path d="M240.852 204.71C233.211 204.71 225.355 210.833 225.355 221.55C225.355 231.347 232.263 238.267 240.852 238.267C247.942 238.267 251.102 233.508 251.102 233.508V235.582C251.102 236.563 252.029 237.657 253.176 237.657H258.301V189.336H251.102V209.53C251.102 209.53 247.916 204.71 240.852 204.71V204.71ZM242.134 211.298C248.424 211.298 251.723 216.829 251.723 221.547C251.723 226.803 247.806 231.793 242.148 231.793C237.418 231.793 232.679 227.963 232.679 221.478C232.679 215.624 236.757 211.298 242.134 211.298Z" fill="black"></path><path d="M216.085 198.494C218.715 198.494 220.847 196.363 220.847 193.733C220.847 191.103 218.715 188.971 216.085 188.971C213.456 188.971 211.324 191.103 211.324 193.733C211.324 196.363 213.456 198.494 216.085 198.494Z" fill="black"></path><path d="M189.919 204.7C181.917 204.7 173.126 210.673 173.126 221.492C173.126 231.352 180.614 238.268 189.901 238.268C201.347 238.268 206.936 229.067 206.936 221.555C206.936 212.337 199.739 204.7 189.919 204.7ZM189.945 211.423C195.478 211.423 199.606 215.883 199.606 221.513C199.606 227.24 195.224 231.66 189.961 231.66C185.076 231.66 180.327 227.684 180.327 221.609C180.327 215.432 184.844 211.423 189.945 211.423V211.423Z" fill="black"></path><path d="M201.43 81.8294L219.85 49.9206C220.89 48.1318 220.261 45.8595 218.497 44.8201C216.732 43.7806 214.436 44.3849 213.42 46.1738L194.758 78.4935C180.52 71.9908 164.493 68.3649 147.258 68.3649C130.022 68.3649 113.995 71.9908 99.7574 78.4935L81.0956 46.1738C80.0562 44.3849 77.7839 43.7806 75.995 44.8201C74.2062 45.8595 73.6019 48.1318 74.6413 49.9206L93.0614 81.8294C61.2977 99.0408 39.7834 131.191 36.23 168.829H258.286C254.732 131.191 233.218 99.0408 201.43 81.8294ZM96.2764 137.646C91.1275 137.646 86.9697 133.464 86.9697 128.339C86.9697 123.19 91.1517 119.032 96.2764 119.032C101.425 119.032 105.583 123.214 105.583 128.339C105.607 133.464 101.425 137.646 96.2764 137.646ZM198.215 137.646C193.066 137.646 188.908 133.464 188.908 128.339C188.908 123.19 193.09 119.032 198.215 119.032C203.364 119.032 207.522 123.214 207.522 128.339C207.546 133.464 203.364 137.646 198.215 137.646Z" fill="#32DE84"></path></g><defs><clipPath id="clip0_194_3"><rect width="222.204" height="193.957" fill="white" transform="translate(36.0967 44.3115)"></rect></clipPath></defs></svg>