<svg xmlns="http://www.w3.org/2000/svg" width="422" height="425.098" viewBox="0 0 422 425.098">
  <g id="Group_938" data-name="Group 938" transform="translate(-220.5 -226.624)">
    <g id="Group_935" data-name="Group 935">
      <path id="Path_1757" data-name="Path 1757" d="M147.146,295.582h67.241a7.093,7.093,0,1,0,0-14.185H147.146a7.093,7.093,0,1,0,0,14.185" transform="translate(218.529 258.2)" fill="#a1a9b9"/>
      <path id="Path_1758" data-name="Path 1758" d="M114.464,316.781h79.349a8.219,8.219,0,0,0,7.771-10.579L163.692,175.581a8.123,8.123,0,0,0-7.771-5.911H76.571A8.219,8.219,0,0,0,68.8,180.249L106.693,310.87a8.123,8.123,0,0,0,7.771,5.911" transform="translate(204.946 237.002)" fill="#a1a9b9"/>
      <path id="Path_1759" data-name="Path 1759" d="M123.641,316.781h69.116a8.219,8.219,0,0,0,7.771-10.579L162.635,175.581a8.12,8.12,0,0,0-7.77-5.911H85.748a8.219,8.219,0,0,0-7.771,10.579L115.87,310.87a8.124,8.124,0,0,0,7.771,5.911" transform="translate(206.688 237.002)" fill="#ebedf1"/>
      <path id="Path_1760" data-name="Path 1760" d="M108.276,295.582h83.987a7.093,7.093,0,1,0,0-14.185H108.276a7.093,7.093,0,1,0,0,14.185" transform="translate(211.154 258.2)" fill="#a1a9b9"/>
      <rect id="Rectangle_267" data-name="Rectangle 267" width="27.499" height="20.342" transform="translate(430.654 632.461) rotate(-89.771)" fill="#ffc2b0"/>
      <rect id="Rectangle_268" data-name="Rectangle 268" width="43.417" height="14.636" transform="translate(420.12 603.036)" fill="#636363"/>
      <path id="Path_1761" data-name="Path 1761" d="M162.117,244.2l-1.43,8.767a30.767,30.767,0,0,0,30.366,35.722h9.091v77.337l37.741.5,2.106-94.747a26.967,26.967,0,0,0-26.9-27.473Z" transform="translate(222.367 251.142)" fill="#636363"/>
      <path id="Path_1762" data-name="Path 1762" d="M201.372,356.594c4.785,1.277,15.749,4.658,20.829-2.709L256.553,372.5l-60.642-.4,2.7-13.686a2.215,2.215,0,0,1,2.763-1.822" transform="translate(229.127 271.954)" fill="#06033e"/>
      <rect id="Rectangle_269" data-name="Rectangle 269" width="5.256" height="60.644" transform="translate(425.002 649.311) rotate(-89.599)" fill="#e3e4ec"/>
      <path id="Path_1763" data-name="Path 1763" d="M217.921,361.784a.976.976,0,0,0,.4-.316,20.226,20.226,0,0,1,4.477-4.585.96.96,0,1,0-1.062-1.6,21.682,21.682,0,0,0-4.968,5.054.96.96,0,0,0,1.156,1.445" transform="translate(233.049 272.19)" fill="#fff"/>
      <path id="Path_1764" data-name="Path 1764" d="M221.848,363.852a.977.977,0,0,0,.4-.316,20.227,20.227,0,0,1,4.477-4.585.96.96,0,1,0-1.062-1.6A21.681,21.681,0,0,0,220.7,362.4a.96.96,0,0,0,1.156,1.446" transform="translate(233.794 272.582)" fill="#fff"/>
      <path id="Path_1765" data-name="Path 1765" d="M225.773,365.919a.969.969,0,0,0,.4-.316,20.254,20.254,0,0,1,4.478-4.584.96.96,0,1,0-1.062-1.6,21.71,21.71,0,0,0-4.97,5.053.96.96,0,0,0,1.156,1.446" transform="translate(234.539 272.974)" fill="#fff"/>
      <rect id="Rectangle_270" data-name="Rectangle 270" width="27.499" height="20.342" transform="translate(377.4 632.461) rotate(-89.771)" fill="#ffc2b0"/>
      <path id="Path_1766" data-name="Path 1766" d="M156.9,355.5c4.786,1.277,15.621,5.456,20.7-1.911L211.954,372.2l-60.643-.4,2.827-14.484A2.215,2.215,0,0,1,156.9,355.5" transform="translate(220.666 271.897)" fill="#06033e"/>
      <rect id="Rectangle_271" data-name="Rectangle 271" width="5.256" height="60.644" transform="translate(371.941 648.955) rotate(-89.599)" fill="#e3e4ec"/>
      <path id="Path_1767" data-name="Path 1767" d="M173.322,361.485a.977.977,0,0,0,.4-.317,20.228,20.228,0,0,1,4.477-4.585.96.96,0,1,0-1.062-1.6,21.683,21.683,0,0,0-4.968,5.054.96.96,0,0,0,1.156,1.446" transform="translate(224.587 272.133)" fill="#fff"/>
      <path id="Path_1768" data-name="Path 1768" d="M177.248,363.553a.969.969,0,0,0,.4-.316,20.257,20.257,0,0,1,4.477-4.585.96.96,0,0,0-1.062-1.6,21.708,21.708,0,0,0-4.968,5.054.96.96,0,0,0,1.156,1.446" transform="translate(225.333 272.525)" fill="#fff"/>
      <path id="Path_1769" data-name="Path 1769" d="M181.174,365.62a.977.977,0,0,0,.4-.316,20.254,20.254,0,0,1,4.478-4.584.96.96,0,0,0-1.062-1.6,21.708,21.708,0,0,0-4.97,5.053.96.96,0,0,0,1.156,1.446" transform="translate(226.077 272.917)" fill="#fff"/>
      <rect id="Rectangle_272" data-name="Rectangle 272" width="43.417" height="14.636" transform="translate(366.867 603.036)" fill="#7a7a7a"/>
      <path id="Path_1770" data-name="Path 1770" d="M117.356,244.2l-1.43,8.767a30.767,30.767,0,0,0,30.366,35.722h9.091v77.337l37.741.5,2.106-94.747a26.967,26.967,0,0,0-26.9-27.473Z" transform="translate(213.874 251.142)" fill="#7a7a7a"/>
      <path id="Path_1772" data-name="Path 1772" d="M195.415,164.893s18.747,25.584,32.019,55.854a10.958,10.958,0,0,1-.877,10.428c-4.617,6.972-16.677,5.363-21.324-1.118,0,0-35.483-48.778-33.97-50.75.359-.47,24.152-14.414,24.152-14.414" transform="translate(224.442 236.095)" fill="#64be7f"/>
      <path id="Path_1773" data-name="Path 1773" d="M211.783,207.346l46.49-18.567,4.026,24.159-46.808,17.67a9.333,9.333,0,0,1-5.3.434,12.014,12.014,0,0,1,1.6-23.7" transform="translate(230.053 240.627)" fill="#64be7f"/>
      <path id="Path_1774" data-name="Path 1774" d="M169.443,159.443l32.181,4.136a6.111,6.111,0,0,1,5.3,6.663l-20.79,90.208-69.071-.17,9.778-89.734a6.112,6.112,0,0,1,5.392-6.8Z" transform="translate(214.167 235.061)" fill="#64be7f"/>
      <path id="Path_1775" data-name="Path 1775" d="M184.936,203.715c0-1.074,5.771-23.011,5.771-23.011" transform="translate(227.045 239.095)" fill="none" stroke="#509f67" stroke-miterlimit="10" stroke-width="1.029"/>
      <path id="Path_1776" data-name="Path 1776" d="M174.994,161.1l5.961.766s2.661,9.962-11.168,10.961c-14.412,1.041-20.093-4.29-22.879-11.407l15.869-3.114Z" transform="translate(219.83 234.846)" fill="#509f67"/>
      <path id="Path_1777" data-name="Path 1777" d="M157.773,180.1s-17.54,34.733-37.341,62.728c-2.22,3.137-7.46,4.7-11.3,4.532-8.666-.374-12.339-9.709-9.065-17.308,0,0,27.74-64.1,31.581-65.152.591-.162,26.124,15.2,26.124,15.2" transform="translate(210.718 236.095)" fill="#64be7f"/>
      <path id="Path_1778" data-name="Path 1778" d="M167.633,223.935l-15.082-1.164.47,15.093h13.056Z" transform="translate(220.9 247.077)" fill="#ffc2b0"/>
      <path id="Path_1779" data-name="Path 1779" d="M112.864,214.573l54.214,1.631-1.055,24.272-56.329-1.186a12.46,12.46,0,1,1,3.171-24.717" transform="translate(210.718 245.504)" fill="#64be7f"/>
      <path id="Path_1780" data-name="Path 1780" d="M141.885,188.934l-14.342,31.091,34.1,1.026.031,8.141" transform="translate(216.156 240.657)" fill="none" stroke="#509f67" stroke-miterlimit="10" stroke-width="1.029"/>
      <line id="Line_26" data-name="Line 26" x1="7.574" y2="3.714" transform="translate(336.124 460.683)" fill="none" stroke="#509f67" stroke-miterlimit="10" stroke-width="1.029"/>
      <path id="Path_1781" data-name="Path 1781" d="M164.683,224.27s34.581-13.331,30.738,13.9H162.227Z" transform="translate(222.736 246.742)" fill="#ffc2b0"/>
      <path id="Path_1782" data-name="Path 1782" d="M173.537,133.515a6.8,6.8,0,1,0,7.439-6.1,6.8,6.8,0,0,0-7.439,6.1" transform="translate(224.876 228.979)" fill="#e86860"/>
      <path id="Path_1783" data-name="Path 1783" d="M176.512,142.081l-3.158,24.158c-.619,6.789-5.324,6.835-12,6.172-5.7-.565-10.413-2.719-10.558-8.445l2.441-26.2Z" transform="translate(220.568 230.949)" fill="#ff8c85"/>
      <path id="Path_1784" data-name="Path 1784" d="M172.59,160.314l-15.671-15.378,17.963,1.563Z" transform="translate(221.729 232.309)" fill="#e86860"/>
      <path id="Path_1785" data-name="Path 1785" d="M163.9,156.228l7.834.778a14.217,14.217,0,0,0,15.59-13.21l1.194-18.049a16.588,16.588,0,0,0-14.913-17.6c-9.117-.9-18.838,5.593-19.744,14.71l-1.011,20.554a12.276,12.276,0,0,0,11.05,12.817" transform="translate(220.955 225.312)" fill="#ff8c85"/>
      <path id="Path_1786" data-name="Path 1786" d="M157.906,134.9l2.319-15.5s17.33,4.667,28.577,2.15l.133-1.335c.525-5.288-3.507-10.308-8.681-11.519-4.774-1.117-13.7-1.81-19.29-.8-5.39.978-8.4,6.039-8.494,11.877l-.33,8.166Z" transform="translate(220.823 225.189)" fill="#0d005d"/>
      <path id="Path_1787" data-name="Path 1787" d="M156.883,131.423l-4.1,9.42.245-5.8Z" transform="translate(220.944 229.745)" fill="#0d005d"/>
      <path id="Path_1788" data-name="Path 1788" d="M145.894,130.771a6.8,6.8,0,1,0,7.438-6.1,6.8,6.8,0,0,0-7.438,6.1" transform="translate(219.631 228.458)" fill="#ff8c85"/>
      <path id="Path_1789" data-name="Path 1789" d="M154.08,132.983s.487-4.906-4.281-4.6" transform="translate(220.378 229.165)" fill="none" stroke="#0d005d" stroke-linecap="round" stroke-linejoin="round" stroke-width="0.761"/>
      <path id="Path_1790" data-name="Path 1790" d="M174.868,132.351l.328,5.362-2.17-.215" transform="translate(224.786 229.921)" fill="none" stroke="#0d005d" stroke-linecap="round" stroke-linejoin="round" stroke-width="0.761"/>
      <path id="Path_1791" data-name="Path 1791" d="M168.565,124.939s3.706-.189,3.6,1.775c0,0-.1,1.329-3.329,1.413s-4.039-.271-4.239-1.536,2.245-1.737,3.97-1.653" transform="translate(223.184 228.513)" fill="#0d005d"/>
      <path id="Path_1792" data-name="Path 1792" d="M180.235,126.027s-3-.581-3.39,1.249c0,0-.237,1.24,2.4,1.67s3.534.037,3.859-.957c.369-1.125-1.429-1.852-2.87-1.963" transform="translate(225.509 228.705)" fill="#0d005d"/>
      <path id="Path_1793" data-name="Path 1793" d="M175.915,139.235,165.69,138.22s-.383,3.575,5.56,4.172a4.125,4.125,0,0,0,4.665-3.158" transform="translate(223.393 231.035)" fill="#fff"/>
      <path id="Path_1794" data-name="Path 1794" d="M170.285,131.554a1.355,1.355,0,1,1-.262-1.005,1.355,1.355,0,0,1,.262,1.005" transform="translate(223.753 229.477)" fill="#0d005d"/>
      <path id="Path_1795" data-name="Path 1795" d="M180.495,132.172a1.356,1.356,0,1,1-.262-1.005,1.356,1.356,0,0,1,.262,1.005" transform="translate(225.69 229.594)" fill="#0d005d"/>
      <path id="Path_1796" data-name="Path 1796" d="M218.879,133.652l-16.834,83.631a5.781,5.781,0,0,0,5.668,6.922H328.884a5.782,5.782,0,0,0,5.654-4.571L352.439,136a5.78,5.78,0,0,0-5.652-6.991H224.547a5.781,5.781,0,0,0-5.668,4.642" transform="translate(230.27 229.288)" fill="#667694"/>
      <path id="Path_1797" data-name="Path 1797" d="M223.472,136.967,206.638,220.6a5.781,5.781,0,0,0,5.668,6.922H333.477a5.782,5.782,0,0,0,5.654-4.571l17.9-83.631a5.78,5.78,0,0,0-5.652-6.991H229.14a5.781,5.781,0,0,0-5.668,4.642" transform="translate(231.141 229.916)" fill="#a1a9b9"/>
      <path id="Path_1798" data-name="Path 1798" d="M258.2,193.751l-2.261,22.115h9.833Z" transform="translate(240.518 241.571)" fill="#667694"/>
      <path id="Path_1799" data-name="Path 1799" d="M257.845,193.368l10.035,49.519h36.578L287.3,193.368Z" transform="translate(240.878 241.498)" fill="#a1a9b9"/>
      <path id="Path_1800" data-name="Path 1800" d="M335.615,231.912H211.866a1.973,1.973,0,0,0,0,3.945H335.615a1.973,1.973,0,1,0,0-3.945" transform="translate(231.78 248.811)" fill="#667694"/>
      <path id="Path_1801" data-name="Path 1801" d="M255.826,401.026l54.142-160.884,43.573,158.929" transform="translate(240.496 250.373)" fill="none" stroke="#667694" stroke-miterlimit="10" stroke-width="2.028"/>
      <rect id="Rectangle_273" data-name="Rectangle 273" width="384.697" height="10.899" transform="translate(244.996 484.668)" fill="#a1a9b9"/>
      <path id="Path_1802" data-name="Path 1802" d="M69.535,401.026l54.142-160.884L167.25,399.071" transform="translate(205.149 250.373)" fill="none" stroke="#667694" stroke-miterlimit="10" stroke-width="2.028"/>
      <line id="Line_27" data-name="Line 27" x2="422" transform="translate(220.5 650.614)" fill="none" stroke="#667694" stroke-miterlimit="10" stroke-width="2.021"/>
      <path id="Path_1805" data-name="Path 1805" d="M244.481,57.607H204.789a8.963,8.963,0,0,0-9.182,8.728V104l9.335-8.147H244.48a8.964,8.964,0,0,0,9.182-8.728V66.335a8.964,8.964,0,0,0-9.182-8.728" transform="translate(282.63 214.468)" fill="#fff"/>
      <path id="Path_1806" data-name="Path 1806" d="M244.481,57.607H204.789a8.963,8.963,0,0,0-9.182,8.728V104l9.335-8.147H244.48a8.964,8.964,0,0,0,9.182-8.728V66.335A8.964,8.964,0,0,0,244.481,57.607Z" transform="translate(282.63 214.468)" fill="none" stroke="#a1a9b9" stroke-miterlimit="10" stroke-width="1"/>
      <path id="Path_1803" data-name="Path 1803" d="M233.369,45.538H193.678a8.963,8.963,0,0,0-9.182,8.728V91.929l9.335-8.146h39.537a8.964,8.964,0,0,0,9.183-8.728V54.266a8.964,8.964,0,0,0-9.183-8.728" transform="translate(305.179 214.113)" fill="#ebedf1"/>
      <path id="Path_1804" data-name="Path 1804" d="M233.369,45.538H193.678a8.963,8.963,0,0,0-9.182,8.728V91.929l9.335-8.146h39.537a8.964,8.964,0,0,0,9.183-8.728V54.266a8.964,8.964,0,0,0-9.182-8.728Z" transform="translate(305.179 214.113)" fill="none" stroke="#a1a9b9" stroke-miterlimit="10" stroke-width="1"/>
      <path id="Path_1807" data-name="Path 1807" d="M229.5,64.9a4,4,0,1,1-3.992-3.794A3.9,3.9,0,0,1,229.5,64.9" transform="translate(280.114 214.57)" fill="#a1a9b9"/>
      <path id="Path_1808" data-name="Path 1808" d="M216.013,64.9a4,4,0,1,1-3.992-3.794,3.9,3.9,0,0,1,3.992,3.794" transform="translate(307.494 214.57)" fill="#a1a9b9"/>
      <path id="Path_1809" data-name="Path 1809" d="M202.522,64.9a4,4,0,1,1-3.992-3.8,3.9,3.9,0,0,1,3.992,3.794" transform="translate(334.872 214.57)" fill="#a1a9b9"/>
      <rect id="Rectangle_274" data-name="Rectangle 274" width="75.419" height="58.136" rx="10" transform="translate(268.278 294.965)" fill="#fff" stroke="#a1a9b9" stroke-miterlimit="10" stroke-width="1"/>
      <path id="Path_1810" data-name="Path 1810" d="M24.393-26.2v4.076L10.634-16.471l13.759,5.607v4.092L5.414-14.6v-3.754Zm6.9,22.62h-2.61L36.9-30.987h2.642ZM43.823-26.2,62.8-18.356V-14.6L43.823-6.772v-4.092l13.759-5.607L43.823-22.126Z" transform="translate(271.832 340.889)" fill="#a1a9b9"/>
      <path id="Path_1811" data-name="Path 1811" d="M4678.95,2740.33l-5.924,30.243h-8.252Z" transform="translate(-4320.801 -2310.268)" fill="#509f67"/>
      <path id="Path_1812" data-name="Path 1812" d="M4727.88,2731.94l-1.063,28.121-4.542-5.557Z" transform="translate(-4309.891 -2311.86)" fill="#509f67"/>
      <path id="Path_1813" data-name="Path 1813" d="M77.067,68.146H4a4,4,0,0,1-4-4V4A4,4,0,0,1,4,0H77.07a4,4,0,0,1,4,4V64.148a4,4,0,0,1-4,4" transform="translate(360.763 227.124)" fill="none" stroke="#a1a9b9" stroke-width="1"/>
      <line id="Line_28" data-name="Line 28" x2="28.45" transform="translate(385.906 262.521)" fill="none" stroke="#a1a9b9" stroke-miterlimit="10" stroke-width="1"/>
      <line id="Line_29" data-name="Line 29" x2="59.04" transform="translate(372.811 271.305)" fill="none" stroke="#a1a9b9" stroke-miterlimit="10" stroke-width="1"/>
      <line id="Line_30" data-name="Line 30" x2="59.04" transform="translate(372.811 251.183)" fill="none" stroke="#a1a9b9" stroke-miterlimit="10" stroke-width="1"/>
      <line id="Line_31" data-name="Line 31" x2="17.763" transform="translate(372.021 281.407)" fill="none" stroke="#a1a9b9" stroke-miterlimit="10" stroke-width="1"/>
      <line id="Line_32" data-name="Line 32" x2="19.249" transform="translate(395.106 281.407)" fill="none" stroke="#a1a9b9" stroke-miterlimit="10" stroke-width="1"/>
      <line id="Line_33" data-name="Line 33" x2="7.949" transform="translate(372.021 262.521)" fill="none" stroke="#a1a9b9" stroke-miterlimit="10" stroke-width="1"/>
      <line id="Line_34" data-name="Line 34" x2="19.628" transform="translate(394.727 241.805)" fill="none" stroke="#a1a9b9" stroke-miterlimit="10" stroke-width="1"/>
      <line id="Line_35" data-name="Line 35" x1="3.251" y2="7.76" transform="translate(379.234 237.926)" fill="none" stroke="#a1a9b9" stroke-miterlimit="10" stroke-width="1"/>
      <path id="Path_1814" data-name="Path 1814" d="M18.674,15.284l-2.961,2.735,2.961,2.89" transform="translate(357.331 223.786)" fill="none" stroke="#a1a9b9" stroke-miterlimit="10" stroke-width="1"/>
      <path id="Path_1815" data-name="Path 1815" d="M32.681,15.284l2.961,2.735-2.961,2.89" transform="translate(353.625 223.786)" fill="none" stroke="#a1a9b9" stroke-miterlimit="10" stroke-width="1"/>
      <g id="android-os" transform="translate(496.052 385.98)" style="isolation: isolate">
        <g id="Path_146" data-name="Path 146" transform="translate(0 14.143)" fill="#fff">
          <path d="M5.6,12.624a3.63,3.63,0,0,1-.5.881,4.319,4.319,0,0,1-.727.74,3.871,3.871,0,0,1-.853.522,2.634,2.634,0,0,1-.883.227,1.5,1.5,0,0,1-.744-.125,1.066,1.066,0,0,1-.475-.437,1.36,1.36,0,0,1-.167-.681,2.35,2.35,0,0,1,.178-.857L5.338,2.946a3.585,3.585,0,0,1,.5-.866,4.311,4.311,0,0,1,.718-.731A3.907,3.907,0,0,1,7.4.829,2.682,2.682,0,0,1,8.276.595a1.524,1.524,0,0,1,.743.11,1.048,1.048,0,0,1,.479.42,1.305,1.305,0,0,1,.174.665,2.272,2.272,0,0,1-.171.845Z" stroke="none"/>
          <path d="M 2.469567537307739 15.40760231018066 C 2.128417015075684 15.42892742156982 1.832555770874023 15.37491798400879 1.589691638946533 15.25914192199707 C 1.347018361091614 15.14345550537109 1.157272458076477 14.96610736846924 1.028104662895203 14.74063014984131 C 0.8990381360054016 14.5153284072876 0.830449640750885 14.24196434020996 0.8299589157104492 13.93399906158447 C 0.8294669985771179 13.62624931335449 0.8969768881797791 13.28390693664551 1.040119886398315 12.9203519821167 L 4.956048965454102 2.974679231643677 C 5.097084045410156 2.616480350494385 5.300251007080078 2.269963502883911 5.546790599822998 1.950070381164551 C 5.79327917098999 1.630240440368652 6.083198547363281 1.336924195289612 6.397835254669189 1.085080027580261 C 6.712504386901855 0.8332113027572632 7.051987648010254 0.622748076915741 7.397584438323975 0.4686972796916962 C 7.743316650390625 0.3145869076251984 8.095266342163086 0.2168892025947571 8.434704780578613 0.1906794756650925 C 8.774374008178711 0.1644521355628967 9.069911003112793 0.2122472077608109 9.313462257385254 0.3211398124694824 C 9.55720329284668 0.4301168620586395 9.748888969421387 0.6002931594848633 9.880600929260254 0.8187074065208435 C 10.01241779327393 1.037293791770935 10.08416175842285 1.304186463356018 10.08788585662842 1.606361627578735 C 10.0916109085083 1.908746957778931 10.02722358703613 2.246423959732056 9.886778831481934 2.606282234191895 L 5.987133502960205 12.59838676452637 C 5.84458065032959 12.96365165710449 5.638898372650146 13.31655979156494 5.389126300811768 13.64182281494141 C 5.139303207397461 13.96715545654297 4.845450878143311 14.26472759246826 4.526660919189453 14.51928520202637 C 4.207902908325195 14.77381324768066 3.864306926727295 14.98525619506836 3.51497220993042 15.13840007781982 C 3.165778160095215 15.29148006439209 2.810950517654419 15.38626194000244 2.469567537307739 15.40760231018066 Z M 8.117639541625977 0.9995040893554688 C 7.883833885192871 1.017375707626343 7.641353130340576 1.084548711776733 7.403119564056396 1.19064474105835 C 7.164947986602783 1.296711802482605 6.930970668792725 1.441702246665955 6.714095592498779 1.615266680717468 C 6.497235298156738 1.788819789886475 6.29742956161499 1.990981936454773 6.127589225769043 2.211426258087158 C 5.957726001739502 2.431901454925537 5.817800521850586 2.670713186264038 5.720746994018555 2.917545795440674 L 1.80731987953186 12.87042045593262 C 1.708831071853638 13.12090492248535 1.662498116493225 13.35672378540039 1.663038492202759 13.56865501403809 C 1.663579344749451 13.78068923950195 1.711037039756775 13.96883869171143 1.800135612487793 14.12383651733398 C 1.889282703399658 14.27892112731934 2.020117998123169 14.40082550048828 2.187349319458008 14.48026180267334 C 2.354668855667114 14.559739112854 2.558419227600098 14.59669780731201 2.793277263641357 14.58182716369629 C 3.028245210647583 14.56695079803467 3.272407293319702 14.5015869140625 3.512654781341553 14.396164894104 C 3.752966642379761 14.29071426391602 3.989312648773193 14.1452054977417 4.208571434020996 13.97009754180908 C 4.427845478057861 13.79497909545898 4.629985332489014 13.59029102325439 4.801872730255127 13.36652755737305 C 4.973735809326172 13.14279365539551 5.11531925201416 12.90002918243408 5.213528156280518 12.64873504638672 L 9.115743637084961 2.663889408111572 C 9.212516784667969 2.416271209716797 9.257002830505371 2.183864831924438 9.254638671875 1.975692510604858 C 9.252275466918945 1.767621278762817 9.203107833862305 1.583776593208313 9.112577438354492 1.433143019676208 C 9.0220947265625 1.282590627670288 8.890296936035156 1.165214657783508 8.72260856628418 1.089964866638184 C 8.555008888244629 1.014755129814148 8.351553916931152 0.9816241264343262 8.117639541625977 0.9995040893554688 Z" stroke="none" fill="#fff"/>
        </g>
        <g id="Path_147" data-name="Path 147" transform="translate(29.99 11.817)" fill="#fff">
          <path d="M5.85,12.982a3.55,3.55,0,0,1-.506.907,4.3,4.3,0,0,1-.747.762,3.972,3.972,0,0,1-.889.538,2.814,2.814,0,0,1-.931.235,1.671,1.671,0,0,1-.8-.127,1.173,1.173,0,0,1-.52-.448,1.4,1.4,0,0,1-.2-.7,2.3,2.3,0,0,1,.159-.881L5.23,3.04a3.505,3.505,0,0,1,.5-.891A4.294,4.294,0,0,1,6.467,1.4,4.008,4.008,0,0,1,7.346.861,2.864,2.864,0,0,1,8.27.618a1.7,1.7,0,0,1,.793.111,1.155,1.155,0,0,1,.524.43,1.339,1.339,0,0,1,.209.683,2.226,2.226,0,0,1-.151.868Z" stroke="none"/>
          <path d="M 2.619876384735107 15.84976959228516 C 2.257930994033813 15.87239551544189 1.941490411758423 15.81749820709229 1.679225564002991 15.69900608062744 C 1.417168617248535 15.58061027526855 1.209217429161072 15.39873313903809 1.063975691795349 15.16726779937744 C 0.9188511371612549 14.93599224090576 0.836329460144043 14.65519714355469 0.8249782919883728 14.33870792388916 C 0.8136353492736816 14.02244758605957 0.8733611702919006 13.67049884796143 1.012736082077026 13.29659938812256 L 4.824721336364746 3.070100545883179 C 4.961982250213623 2.701868772506714 5.165692329406738 2.34548544883728 5.416439056396484 2.016336679458618 C 5.667130947113037 1.687257647514343 5.964921474456787 1.385297536849976 6.290448188781738 1.125865697860718 C 6.616009712219238 0.8664078712463379 6.969411849975586 0.6494056582450867 7.33131217956543 0.4903198182582855 C 7.693356990814209 0.3311696350574493 8.064008712768555 0.2299348115921021 8.42390251159668 0.2021455764770508 C 8.784045219421387 0.174338087439537 9.099905014038086 0.2226615995168686 9.362673759460449 0.3338674306869507 C 9.625651359558105 0.4451620578765869 9.835467338562012 0.6194466948509216 9.98323917388916 0.8434305787086487 C 10.13113021850586 1.067596316337585 10.21687126159668 1.341533422470093 10.23155307769775 1.651888489723206 C 10.24623966217041 1.962466716766357 10.18976306915283 2.309471607208252 10.05320930480957 2.67945671081543 L 6.260739326477051 12.95504474639893 C 6.122072696685791 13.33075428009033 5.915841579437256 13.69390392303467 5.661752700805664 14.02874565124512 C 5.407607555389404 14.3636531829834 5.105666637420654 14.67012691497803 4.775691509246826 14.9324369430542 C 4.445749759674072 15.19472026824951 4.087879657745361 15.41276931762695 3.72185754776001 15.57090187072754 C 3.355982542037964 15.72897243499756 2.982073307037354 15.82712745666504 2.619876384735107 15.84976959228516 Z M 8.115497589111328 1.03360652923584 C 7.867592334747314 1.052555799484253 7.612215518951416 1.122159242630005 7.362732410430908 1.231724381446838 C 7.113315105438232 1.341259598731995 6.869735240936279 1.490755081176758 6.645347118377686 1.66955578327179 C 6.420973300933838 1.848342418670654 6.215737342834473 2.056467294692993 6.042997360229492 2.283294916152954 C 5.870236396789551 2.510154724121094 5.729941368103027 2.755772590637207 5.635499477386475 3.009523868560791 L 1.826513528823853 13.24363613128662 C 1.730632185935974 13.50125408172607 1.689676880836487 13.74368858337402 1.697707772254944 13.9614839553833 C 1.705745458602905 14.17938613891602 1.762816905975342 14.37264442443848 1.862989902496338 14.53175067901611 C 1.9632169008255 14.69094562530518 2.106598377227783 14.81595802307129 2.287178754806519 14.89724445343018 C 2.467859268188477 14.97857666015625 2.685775518417358 15.01613616943359 2.934940338134766 15.0003604888916 C 3.18422532081604 14.98457717895508 3.441508531570435 14.91688346862793 3.693219661712646 14.80802536010742 C 3.945002317428589 14.69913959503174 4.191157341003418 14.54908657073975 4.418101787567139 14.36864852905273 C 4.645060062408447 14.18819618225098 4.852761268615723 13.97739601135254 5.027620315551758 13.7470531463623 C 5.202452659606934 13.51673889160156 5.344417095184326 13.26693630218506 5.439962863922119 13.00846099853516 L 9.235508918762207 2.740550994873047 C 9.329617500305176 2.485968351364136 9.368677139282227 2.247145175933838 9.358783721923828 2.033332824707031 C 9.348897933959961 1.819627642631531 9.290109634399414 1.630926966667175 9.188528060913086 1.476443886756897 C 9.087001800537109 1.322046279907227 8.942730903625488 1.201830387115479 8.761801719665527 1.124972939491272 C 8.580970764160156 1.048156499862671 8.363517761230469 1.01464831829071 8.115497589111328 1.03360652923584 Z" stroke="none" fill="#fff"/>
        </g>
        <g id="Path_148" data-name="Path 148" transform="translate(5.67 25.633)" fill="#fff">
          <path d="M5.725,12.974a3.668,3.668,0,0,1-.512.9,4.323,4.323,0,0,1-.741.756,3.867,3.867,0,0,1-.872.528,2.651,2.651,0,0,1-.9.223,1.546,1.546,0,0,1-.764-.138,1.127,1.127,0,0,1-.49-.458,1.432,1.432,0,0,1-.176-.706,2.417,2.417,0,0,1,.177-.883L5.392,2.973A3.62,3.62,0,0,1,5.9,2.084a4.315,4.315,0,0,1,.732-.745A3.9,3.9,0,0,1,7.492.812a2.7,2.7,0,0,1,.9-.231A1.567,1.567,0,0,1,9.152.7a1.107,1.107,0,0,1,.494.44,1.374,1.374,0,0,1,.183.689A2.336,2.336,0,0,1,9.66,2.7Z" stroke="none"/>
          <path d="M 2.53223443031311 15.80997943878174 C 2.182409048080444 15.82760334014893 1.878548502922058 15.7679557800293 1.628649950027466 15.64517784118652 C 1.378949522972107 15.52249622344971 1.183139681816101 15.33678245544434 1.049155473709106 15.10212230682373 C 0.9152780771255493 14.86764907836914 0.8431203961372375 14.58429622650146 0.8405851125717163 14.26607990264893 C 0.8380526304244995 13.94808673858643 0.9050416350364685 13.59523773193359 1.049471497535706 13.22144412994385 L 4.999992847442627 2.997221231460571 C 5.142253398895264 2.629043340682983 5.34831714630127 2.273722171783447 5.599041938781738 1.94644832611084 C 5.849717140197754 1.619239926338196 6.145114421844482 1.319963574409485 6.466141223907471 1.063835501670837 C 6.787201404571533 0.8076791763305664 7.133995056152344 0.5946006178855896 7.487440586090088 0.4398590922355652 C 7.841026782989502 0.2850574254989624 8.201374053955078 0.1885945200920105 8.54937744140625 0.1658072769641876 C 8.897617340087891 0.1430024802684784 9.20109748840332 0.1960925906896591 9.451668739318848 0.3116317689418793 C 9.702438354492188 0.4272622764110565 9.900226593017578 0.6054452061653137 10.03682613372803 0.8326995372772217 C 10.17353534698486 1.060133576393127 10.24894905090332 1.336710453033447 10.25482273101807 1.648871660232544 C 10.26070308685303 1.961255311965942 10.196946144104 2.309233903884888 10.0553150177002 2.679166316986084 L 6.122141361236572 12.95250511169434 C 5.978339672088623 13.3281078338623 5.769690036773682 13.69012641906738 5.515619277954102 14.02301692962646 C 5.261496543884277 14.35597515106201 4.962015151977539 14.65968418121338 4.636662006378174 14.91861629486084 C 4.311341285705566 15.17752075195312 3.960253953933716 15.39157676696777 3.602893829345703 15.54531383514404 C 3.245678901672363 15.69898509979248 2.882302761077881 15.79234504699707 2.53223443031311 15.80997943878174 Z M 8.229611396789551 0.9971721768379211 C 7.989903926849365 1.012677431106567 7.741634845733643 1.078992128372192 7.497982978820801 1.185561537742615 C 7.254398822784424 1.292101502418518 7.015377998352051 1.438892960548401 6.794094085693359 1.615413904190063 C 6.572824954986572 1.791924118995667 6.369240283966064 1.998196244239807 6.196515560150146 2.223732709884644 C 6.023764133453369 2.449298620223999 5.881844520568848 2.694183349609375 5.783951282501221 2.947898626327515 L 1.836095452308655 13.17973899841309 C 1.736724853515625 13.43728256225586 1.690757155418396 13.680344581604 1.692711710929871 13.89933490753174 C 1.694667339324951 14.11843681335449 1.744593739509583 14.31345653533936 1.837014436721802 14.47476863861084 C 1.929486155509949 14.63616847991943 2.064504623413086 14.76382446289062 2.236577987670898 14.84806537628174 C 2.408746004104614 14.93235492706299 2.618002891540527 14.97317886352539 2.858831167221069 14.96084880828857 C 3.099773645401001 14.94851207733154 3.349816560745239 14.88412570953369 3.595575571060181 14.77829170227051 C 3.84140419960022 14.67242908477783 4.082897663116455 14.52511882781982 4.306665420532227 14.34700489044189 C 4.530449390411377 14.16887664794922 4.736457347869873 13.95997714996338 4.91130256652832 13.73096656799316 C 5.086122512817383 13.50199031829834 5.229749202728271 13.25296688079834 5.328821659088135 12.9945650100708 L 9.264732360839844 2.72890567779541 C 9.362327575683594 2.474358797073364 9.406388282775879 2.234867095947266 9.402551651000977 2.019816637039185 C 9.398715972900391 1.80486798286438 9.347031593322754 1.614356994628906 9.253141403198242 1.457625031471252 C 9.159302711486816 1.300981044769287 9.023308753967285 1.178083419799805 8.850786209106445 1.098243832588196 C 8.678356170654297 1.018447637557983 8.46943187713623 0.9816595911979675 8.229611396789551 0.9971721768379211 Z" stroke="none" fill="#fff"/>
        </g>
        <g id="Path_149" data-name="Path 149" transform="translate(14.273 25.067)" fill="#fff">
          <path d="M5.8,13.08a3.645,3.645,0,0,1-.512.912,4.318,4.318,0,0,1-.747.762,3.9,3.9,0,0,1-.882.533,2.7,2.7,0,0,1-.918.226,1.594,1.594,0,0,1-.779-.139,1.158,1.158,0,0,1-.5-.461A1.443,1.443,0,0,1,1.27,14.2a2.4,2.4,0,0,1,.171-.89L5.361,3a3.6,3.6,0,0,1,.506-.9A4.31,4.31,0,0,1,6.6,1.352,3.932,3.932,0,0,1,7.477.821,2.751,2.751,0,0,1,8.388.588a1.616,1.616,0,0,1,.777.124,1.138,1.138,0,0,1,.507.443,1.384,1.384,0,0,1,.193.694,2.323,2.323,0,0,1-.164.877Z" stroke="none"/>
          <path d="M 2.575725555419922 15.94039630889893 C 2.219882011413574 15.95832061767578 1.910068988800049 15.89833831787109 1.654560565948486 15.77468299865723 C 1.399259448051453 15.65112400054932 1.198189973831177 15.4640064239502 1.059563994407654 15.22751712799072 C 0.9210512638092041 14.99121856689453 0.844875156879425 14.7056245803833 0.8392124176025391 14.38485050201416 C 0.8335536122322083 14.06430912017822 0.898307740688324 13.70859527587891 1.041664123535156 13.33173561096191 L 4.962575435638428 3.024303913116455 C 5.103760242462158 2.653153657913208 5.309995651245117 2.294926404953003 5.561953544616699 1.964937448501587 C 5.813859462738037 1.635018706321716 6.111546516418457 1.333225846290588 6.43573522567749 1.07490062713623 C 6.759960174560547 0.8165488243103027 7.110789775848389 0.6015949249267578 7.468958854675293 0.4454310238361359 C 7.827271461486816 0.2892060279846191 8.193036079406738 0.1917726397514343 8.546957015991211 0.1685959845781326 C 8.901123046875 0.1454052776098251 9.210480690002441 0.1987293064594269 9.466608047485352 0.3150224983692169 C 9.722935676574707 0.4314102828502655 9.925966262817383 0.610874354839325 10.06720066070557 0.8398292660713196 C 10.20855045318604 1.068972706794739 10.28800201416016 1.347677707672119 10.29703426361084 1.662292242050171 C 10.30607128143311 1.977134823799133 10.24458694458008 2.327895402908325 10.10406589508057 2.700828790664673 L 6.201441764831543 13.05817985534668 C 6.058748722076416 13.43687915802002 5.849922180175781 13.80191516876221 5.594588279724121 14.13761043548584 C 5.339198589324951 14.4733772277832 5.037363052368164 14.77967834472656 4.708761215209961 15.04085540771484 C 4.38019323348999 15.3020076751709 4.024964332580566 15.51795482635498 3.662768125534058 15.67310333251953 C 3.300721168518066 15.82818126678467 2.931816339492798 15.92245769500732 2.575725555419922 15.94039630889893 Z M 8.22966194152832 1.006667613983154 C 7.985873222351074 1.022437453269958 7.733868598937988 1.089420557022095 7.486959457397461 1.196968793869019 C 7.240114212036133 1.304488778114319 6.998309135437012 1.452572703361511 6.774843692779541 1.630611300468445 C 6.5513916015625 1.808632969856262 6.346227645874023 2.016642332077026 6.172651767730713 2.244049072265625 C 5.999053478240967 2.471488237380981 5.857015132904053 2.71837854385376 5.759866237640381 2.974143028259277 L 1.841765761375427 13.28931713104248 C 1.743138194084167 13.54897499084473 1.698716163635254 13.79400730133057 1.702827215194702 14.01475715637207 C 1.706941962242126 14.23561477661133 1.759641289710999 14.4321813583374 1.855259895324707 14.59474658966064 C 1.950931191444397 14.75740146636963 2.08957314491272 14.88602161407471 2.265507221221924 14.97086238861084 C 2.441536426544189 15.05574512481689 2.654890060424805 15.0968017578125 2.899859189987183 15.08426094055176 C 3.144944667816162 15.0717134475708 3.398787975311279 15.00668525695801 3.647868871688843 14.89988613128662 C 3.897022247314453 14.79305553436279 4.141361236572266 14.64444255828857 4.36736011505127 14.46478652954102 C 4.593374729156494 14.28511810302734 4.801002025604248 14.07443237304688 4.976719856262207 13.84349727630615 C 5.152408123016357 13.61258983612061 5.296156883239746 13.36149024963379 5.394469738006592 13.10096073150635 L 9.299980163574219 2.751416921615601 C 9.396815299987793 2.494807243347168 9.439313888549805 2.253401756286621 9.433311462402344 2.036659955978394 C 9.427306175231934 1.820020914077759 9.372844696044922 1.628043413162231 9.275766372680664 1.470134496688843 C 9.178738594055176 1.312312841415405 9.039140701293945 1.188530325889587 8.862791061401367 1.108163952827454 C 8.686535835266113 1.027843236923218 8.473564147949219 0.9908921718597412 8.22966194152832 1.006667613983154 Z" stroke="none" fill="#fff"/>
        </g>
        <g id="Path_150" data-name="Path 150" transform="translate(4.523 12.327)" fill="#fff">
          <path d="M7.93,2.09,1.43,18.8a2.37,2.37,0,0,0-.176.868,1.389,1.389,0,0,0,.173.691,1.1,1.1,0,0,0,.484.445,1.532,1.532,0,0,0,.755.13l17.245-1.01a2.757,2.757,0,0,0,.922-.231,3.935,3.935,0,0,0,.884-.535,4.309,4.309,0,0,0,.745-.76,3.591,3.591,0,0,0,.508-.906L29.345.445Z" stroke="none"/>
          <path d="M 19.75154685974121 20.34614372253418 L 2.504392147064209 21.34885787963867 C 2.158422470092773 21.36897087097168 1.858005285263062 21.31287574768066 1.611030578613281 21.19437408447266 C 1.364252328872681 21.07595825195312 1.170845150947571 20.89523887634277 1.038642168045044 20.66597557067871 C 0.9065432548522949 20.43689155578613 0.8355448246002197 20.15933418273926 0.8334445953369141 19.84697914123535 C 0.8313446640968323 19.53485679626465 0.8980469107627869 19.18794441223145 1.041358590126038 18.81985855102539 L 7.543367862701416 2.120001077651978 L 7.701334476470947 1.714274287223816 L 8.08796215057373 1.684421062469482 L 29.49933052062988 0.03115073405206203 L 29.90277481079102 -9.659013358032098e-07 L 29.74801445007324 0.4141019284725189 L 23.37619972229004 17.46336364746094 C 23.23571968078613 17.83925247192383 23.0285816192627 18.20220565795898 22.7744083404541 18.53652381896973 C 22.52018165588379 18.87091827392578 22.2189769744873 19.17655754089355 21.89047241210938 19.43778419494629 C 21.56199836730957 19.6989803314209 21.20633697509766 19.91569900512695 20.84315872192383 20.07231521606445 C 20.48013305664062 20.22886657714844 20.10970497131348 20.32532119750977 19.75154685974121 20.34614372253418 Z M 8.159069061279297 2.466820955276489 L 1.819351434707642 18.77260589599609 C 1.720747709274292 19.02621841430664 1.674976825714111 19.26518440246582 1.676628351211548 19.48013305664062 C 1.678282856941223 19.6951847076416 1.727405667304993 19.8862247467041 1.818597435951233 20.04382133483887 C 1.909838318824768 20.20150947570801 2.043195962905884 20.32573509216309 2.213255882263184 20.40703964233398 C 2.383407592773438 20.48839569091797 2.590294361114502 20.52678489685059 2.828468322753906 20.51274681091309 L 20.07069206237793 19.49634742736816 C 20.31719779968262 19.48181533813477 20.57207679748535 19.41529083251953 20.82183837890625 19.30747413635254 C 21.07166290283203 19.19963455200195 21.31630897521973 19.05049324035645 21.54224014282227 18.87080192565918 C 21.7681884765625 18.69109725952148 21.97538566589355 18.48086738586426 22.15029716491699 18.25087928771973 C 22.32519149780273 18.02091979980469 22.4677791595459 17.77125930786133 22.5645694732666 17.51265716552734 L 28.78634643554688 0.8901236057281494 L 8.159069061279297 2.466820955276489 Z" stroke="none" fill="#fff"/>
        </g>
        <g id="Path_151" data-name="Path 151" transform="translate(12.733 1.191)" fill="#fff">
          <path d="M14.523,1.385A16.593,16.593,0,0,0,9.96,2.455,17.947,17.947,0,0,0,2.8,7.574a15.467,15.467,0,0,0-2.22,3.453l21.4-1.689A8.2,8.2,0,0,0,22.32,5.97a4.957,4.957,0,0,0-1.129-2.64,5.427,5.427,0,0,0-2.6-1.622A10.774,10.774,0,0,0,14.523,1.385Zm-6.6,6.5A.793.793,0,0,1,7.54,7.83a.534.534,0,0,1-.246-.208.642.642,0,0,1-.092-.33,1.106,1.106,0,0,1,.081-.42,1.756,1.756,0,0,1,.247-.434,2.149,2.149,0,0,1,.361-.367,1.983,1.983,0,0,1,.427-.263,1.387,1.387,0,0,1,.445-.12.8.8,0,0,1,.379.052.535.535,0,0,1,.247.207.641.641,0,0,1,.093.33A1.1,1.1,0,0,1,9.4,6.7a1.755,1.755,0,0,1-.248.435,2.149,2.149,0,0,1-.362.368,1.983,1.983,0,0,1-.428.263A1.384,1.384,0,0,1,7.919,7.883Zm8.55-.7a.817.817,0,0,1-.386-.053.55.55,0,0,1-.252-.209.647.647,0,0,1-.1-.333,1.1,1.1,0,0,1,.079-.423,1.745,1.745,0,0,1,.248-.437,2.147,2.147,0,0,1,.364-.37,2,2,0,0,1,.432-.265,1.413,1.413,0,0,1,.452-.122.82.82,0,0,1,.386.052.55.55,0,0,1,.253.208.645.645,0,0,1,.1.332,1.1,1.1,0,0,1-.078.424,1.743,1.743,0,0,1-.248.438,2.147,2.147,0,0,1-.364.371,2,2,0,0,1-.433.265A1.41,1.41,0,0,1,16.469,7.186Z" stroke="none"/>
          <path d="M 22.25556182861328 9.71644401550293 L 21.81907081604004 9.750725746154785 L 0.4182820916175842 11.43159103393555 L -8.025825081858784e-06 11.46444416046143 L 0.20305235683918 11.02519226074219 C 0.4956229329109192 10.39232921600342 0.8404459953308105 9.769424438476562 1.231758236885071 9.163182258605957 C 1.622857809066772 8.557271003723145 2.060504674911499 7.967837333679199 2.538984775543213 7.401580810546875 C 3.017338514328003 6.835476398468018 3.536639451980591 6.292377948760986 4.091220378875732 5.77899694442749 C 4.645813941955566 5.265605926513672 5.23584508895874 4.781784057617188 5.855686664581299 4.334265232086182 C 6.520092964172363 3.854567050933838 7.208346366882324 3.422517538070679 7.915493011474609 3.03999924659729 C 8.62309741973877 2.657232999801636 9.349838256835938 2.323945760726929 10.09075927734375 2.042076826095581 C 10.83238506317139 1.759940266609192 11.58843803405762 1.529236674308777 12.35394477844238 1.351964235305786 C 13.12040138244629 1.174471616744995 13.89655208587646 1.050492644309998 14.67739963531494 0.9820805191993713 C 15.45943737030029 0.9135645031929016 16.19472503662109 0.9052901864051819 16.87918472290039 0.956230103969574 C 17.56473159790039 1.007250666618347 18.1993236541748 1.117675185203552 18.77883529663086 1.28647768497467 C 19.35928344726562 1.455554246902466 19.88449096679688 1.683202147483826 20.35028076171875 1.968391180038452 C 20.81683349609375 2.254047393798828 21.22377014160156 2.597434759140015 21.56689643859863 2.997506380081177 C 21.88760757446289 3.371450424194336 22.14666938781738 3.790811538696289 22.34307861328125 4.249282836914062 C 22.53977203369141 4.708419322967529 22.67360877990723 5.206736087799072 22.74361228942871 5.737869262695312 C 22.81371116638184 6.269716739654541 22.81978797912598 6.83439826965332 22.76087951660156 7.425484657287598 C 22.70190238952637 8.01728343963623 22.57778930664062 8.635456085205078 22.38759803771973 9.27350902557373 L 22.25556182861328 9.71644401550293 Z M 1.162382364273071 10.58815097808838 L 21.68070793151855 8.960728645324707 C 21.93426704406738 7.944302558898926 22.00692367553711 6.950644493103027 21.87119483947754 6.041250228881836 C 21.73577690124512 5.133971691131592 21.39300727844238 4.311022281646729 20.81587219238281 3.63313102722168 C 20.24031448364258 2.957102537155151 19.4318790435791 2.425567865371704 18.36386299133301 2.098453044891357 C 17.29906272888184 1.772323369979858 15.97644329071045 1.649445652961731 14.36945056915283 1.789019107818604 C 12.76746654510498 1.928158044815063 11.27037906646729 2.294548273086548 9.893918991088867 2.828715324401855 C 8.519850730895996 3.361955404281616 7.264232635498047 4.063071250915527 6.143582344055176 4.873388290405273 C 5.023556232452393 5.683251857757568 4.037135124206543 6.603071689605713 3.201560735702515 7.574391841888428 C 2.365631818771362 8.546125411987305 1.679936766624451 9.570266723632812 1.162382364273071 10.58815097808838 Z M 16.31436920166016 7.595291614532471 C 16.11100959777832 7.611775875091553 15.93331527709961 7.584956169128418 15.78614044189453 7.522408962249756 C 15.63903331756592 7.459891796112061 15.52241992950439 7.361681938171387 15.44113731384277 7.235345840454102 C 15.35988998413086 7.109066486358643 15.31393814086914 6.954684257507324 15.30809593200684 6.779740810394287 C 15.30225849151611 6.604868412017822 15.33650016784668 6.409436702728271 15.4156436920166 6.200963020324707 C 15.4947681427002 5.992552280426025 15.61140155792236 5.790497303009033 15.75451469421387 5.603593349456787 C 15.89760494232178 5.416709423065186 16.06719589233398 5.244940280914307 16.25225830078125 5.097082138061523 C 16.43732833862305 4.949214458465576 16.63791084289551 4.825239181518555 16.84297752380371 4.733966827392578 C 17.04809188842773 4.642674922943115 17.25773239135742 4.584085941314697 17.46087074279785 4.567041873931885 C 17.66409301757812 4.549992561340332 17.84188270568848 4.576107025146484 17.98935508728027 4.637913227081299 C 18.13689613342285 4.699748516082764 18.25409889221191 4.797310352325439 18.3360481262207 4.92311954498291 C 18.41803550720215 5.048985958099365 18.4647331237793 5.203118324279785 18.47123146057129 5.378017425537109 C 18.47772789001465 5.552986621856689 18.4439868927002 5.74872350692749 18.36508750915527 5.957695484161377 C 18.28616523742676 6.166728973388672 18.1694278717041 6.369485378265381 18.02596473693848 6.557076930999756 C 17.88249206542969 6.744691371917725 17.71231079101562 6.917106151580811 17.52653312683105 7.065442562103271 C 17.34077072143555 7.213770389556885 17.13944435119629 7.337999820709229 16.93367195129395 7.429267883300781 C 16.72794723510742 7.520515918731689 16.5178108215332 7.578803062438965 16.31436920166016 7.595291614532471 Z M 17.15239715576172 5.381816864013672 C 17.0587100982666 5.389605522155762 16.96199798583984 5.41657829284668 16.86736297607422 5.458661079406738 C 16.77273368835449 5.500738143920898 16.68017196655273 5.557925701141357 16.59476852416992 5.626152515411377 C 16.50936126708984 5.694377422332764 16.43110656738281 5.773645877838135 16.36508750915527 5.859892845153809 C 16.29907035827637 5.946146011352539 16.24528694152832 6.039383411407471 16.20883178710938 6.135540962219238 C 16.17237854003906 6.231713771820068 16.15665435791016 6.321848392486572 16.15942573547363 6.402478694915771 C 16.16220092773438 6.48312520980835 16.1834774017334 6.554267406463623 16.22102737426758 6.612433433532715 C 16.25857925415039 6.670609474182129 16.31241226196289 6.715805530548096 16.38028526306152 6.744542598724365 C 16.44817161560059 6.7732834815979 16.53010749816895 6.785560131072998 16.62384223937988 6.777890205383301 C 16.71759605407715 6.770219326019287 16.81440734863281 6.743310451507568 16.90917587280273 6.701240062713623 C 17.00395202636719 6.659162044525146 17.09667587280273 6.601922512054443 17.18222999572754 6.533599376678467 C 17.26778411865234 6.465271472930908 17.34616661071777 6.385868072509766 17.41226387023926 6.299465179443359 C 17.47836112976074 6.21306848526001 17.53216552734375 6.119681835174561 17.56857299804688 6.023390769958496 C 17.60497856140137 5.927114009857178 17.62059593200684 5.836913108825684 17.6176815032959 5.756261348724365 C 17.61476898193359 5.675623893737793 17.59333038330078 5.604534149169922 17.55562782287598 5.546455860137939 C 17.51793098449707 5.488389492034912 17.4639720916748 5.443330764770508 17.3960075378418 5.414739608764648 C 17.32805442810059 5.386153221130371 17.24610328674316 5.374026298522949 17.15239715576172 5.381816864013672 Z M 7.76288890838623 8.288424491882324 C 7.562889099121094 8.304636001586914 7.388526439666748 8.277887344360352 7.244497299194336 8.215703010559082 C 7.100531101226807 8.153548240661621 6.986876010894775 8.055991172790527 6.908206462860107 7.930543899536133 C 6.82957124710083 7.805154800415039 6.785890579223633 7.651897430419922 6.781823635101318 7.47826099395752 C 6.777759075164795 7.304696559906006 6.813278675079346 7.110754489898682 6.893049716949463 6.903902053833008 C 6.972798824310303 6.697110652923584 7.089352607727051 6.496654987335205 7.231780529022217 6.311255931854248 C 7.374190807342529 6.125877857208252 7.542492389678955 5.955520629882812 7.725772380828857 5.808907032012939 C 7.909061908721924 5.662284374237061 8.107359886169434 5.53938627243042 8.309758186340332 5.448951721191406 C 8.512200355529785 5.35849666595459 8.718776702880859 5.300504684448242 8.91856575012207 5.283742904663086 C 9.118432998657227 5.266973972320557 9.292896270751953 5.293027877807617 9.437223434448242 5.354482173919678 C 9.581616401672363 5.415966987609863 9.69585132598877 5.512886047363281 9.775174140930176 5.637814998626709 C 9.854533195495605 5.762800216674805 9.898945808410645 5.915812492370605 9.903650283813477 6.089404106140137 C 9.908357620239258 6.263064861297607 9.873324394226074 6.4573073387146 9.793785095214844 6.664649963378906 C 9.714225769042969 6.872054576873779 9.597565650939941 7.073201179504395 9.454789161682129 7.259276390075684 C 9.312000274658203 7.445374488830566 9.143115997314453 7.616366386413574 8.959136962890625 7.763449192047119 C 8.77517032623291 7.910525321960449 8.576142311096191 8.033671379089355 8.37305736541748 8.124101638793945 C 8.170023918151855 8.214511871337891 7.962966918945312 8.272207260131836 7.76288890838623 8.288424491882324 Z M 8.60761833190918 6.092187404632568 C 8.515475273132324 6.099846839904785 8.420181274414062 6.126545429229736 8.326778411865234 6.168241024017334 C 8.233384132385254 6.209932327270508 8.141875267028809 6.266621589660645 8.057293891906738 6.334274291992188 C 7.97271203994751 6.401924610137939 7.895049571990967 6.480540752410889 7.829347610473633 6.566092967987061 C 7.763644695281982 6.651649951934814 7.709897994995117 6.744149208068848 7.673155784606934 6.839559555053711 C 7.636408805847168 6.934983253479004 7.620093822479248 7.024430274963379 7.622045516967773 7.104457855224609 C 7.624000549316406 7.184502124786377 7.644228935241699 7.255124568939209 7.68057107925415 7.312881946563721 C 7.7169189453125 7.370650768280029 7.769386768341064 7.41554594039917 7.835809707641602 7.444117069244385 C 7.902248382568359 7.472693920135498 7.982645511627197 7.48493766784668 8.074832916259766 7.477395534515381 C 8.167036056518555 7.469850540161133 8.262432098388672 7.443215847015381 8.355961799621582 7.401530742645264 C 8.449501037597656 7.359838485717773 8.541166305541992 7.303097724914551 8.625893592834473 7.235351085662842 C 8.71062183380127 7.167600154876709 8.788409233093262 7.088850498199463 8.854191780090332 7.003145694732666 C 8.919970512390137 6.917447090148926 8.973738670349121 6.824802398681641 9.010439872741699 6.729260921478271 C 9.047138214111328 6.633733749389648 9.063350677490234 6.544221878051758 9.061260223388672 6.464171409606934 C 9.059170722961426 6.384137153625488 9.038784980773926 6.313564300537109 9.002291679382324 6.255893707275391 C 8.965803146362305 6.198234558105469 8.913210868835449 6.153472900390625 8.846697807312012 6.125044822692871 C 8.780195236206055 6.096622943878174 8.699776649475098 6.084525108337402 8.60761833190918 6.092187404632568 Z" stroke="none" fill="#fff"/>
        </g>
        <g id="Path_152" data-name="Path 152" transform="translate(30.131 0)" fill="#fff" stroke-linecap="round">
          <path d="M3.979.916,1.146,3.82" stroke="none"/>
          <path d="M 0.9144054055213928 4.429397106170654 C 0.886011004447937 4.431814193725586 0.8583274483680725 4.432165145874023 0.8315943479537964 4.430385589599609 C 0.8048666715621948 4.428606510162354 0.7790905833244324 4.424697399139404 0.7545082569122314 4.418590068817139 C 0.7299295663833618 4.412484169006348 0.7065427303314209 4.404182434082031 0.684596836566925 4.393618583679199 C 0.6626505851745605 4.383055686950684 0.6421423554420471 4.370231628417969 0.6233122944831848 4.355081081390381 C 0.5725645422935486 4.314245700836182 0.5388397574424744 4.260374069213867 0.5213026404380798 4.197924613952637 C 0.5037685632705688 4.135485172271729 0.5024177432060242 4.064468860626221 0.5164180397987366 3.989328622817993 C 0.5304135680198669 3.914199590682983 0.5597566962242126 3.834943294525146 0.6036134362220764 3.756008148193359 C 0.6474645733833313 3.677079916000366 0.7058334946632385 3.598469495773315 0.7778894901275635 3.524619579315186 L 3.609040498733521 0.6230608224868774 C 3.654340028762817 0.5766342878341675 3.702385902404785 0.5348297357559204 3.751985311508179 0.497969925403595 C 3.801588535308838 0.461109846830368 3.852744102478027 0.4291935563087463 3.904269695281982 0.4025445580482483 C 3.955796003341675 0.3758937120437622 4.007690906524658 0.3545110821723938 4.058762073516846 0.3387193381786346 C 4.109838962554932 0.3229267299175262 4.160091876983643 0.3127251267433167 4.208334922790527 0.3084397912025452 C 4.236788749694824 0.3059123456478119 4.264542102813721 0.3054413497447968 4.291351318359375 0.3070932328701019 C 4.318160533905029 0.3087451159954071 4.3440260887146 0.3125203549861908 4.368706226348877 0.3184861540794373 C 4.393387794494629 0.324451744556427 4.416884899139404 0.3326080441474915 4.438949108123779 0.3430212736129761 C 4.461015701293945 0.3534353673458099 4.481652736663818 0.3661075830459595 4.500618457794189 0.3811041414737701 C 4.551747798919678 0.4215347766876221 4.585858821868896 0.4750303328037262 4.603759765625 0.5371541380882263 C 4.621665954589844 0.5992888212203979 4.62335729598999 0.6700533032417297 4.609636306762695 0.745006263256073 C 4.595916271209717 0.8199697136878967 4.566784858703613 0.8991196751594543 4.523053646087646 0.9780107736587524 C 4.479321956634521 1.056908369064331 4.420986652374268 1.135540962219238 4.34887170791626 1.209460973739624 L 1.513802170753479 4.115398406982422 C 1.468413949012756 4.16192102432251 1.420293569564819 4.203783988952637 1.370635747909546 4.240665912628174 C 1.320976853370667 4.277546405792236 1.26978063583374 4.309444427490234 1.218238949775696 4.336040496826172 C 1.166699528694153 4.362633228302002 1.114814281463623 4.38392448425293 1.063776135444641 4.399590492248535 C 1.012742161750793 4.415256500244141 0.9625553488731384 4.42529821395874 0.9144054055213928 4.429397106170654 Z" stroke="none" fill="#fff"/>
        </g>
        <g id="Path_153" data-name="Path 153" transform="translate(19.316 1.019)" fill="#fff" stroke-linecap="round">
          <path d="M2,1.026l.533,2.142" stroke="none"/>
          <path d="M 2.301699161529541 3.772396802902222 C 2.25352931022644 3.776517868041992 2.207982063293457 3.774476051330566 2.166097640991211 3.76643180847168 C 2.124217748641968 3.758389234542847 2.086000919342041 3.744346618652344 2.052485466003418 3.724464654922485 C 2.01897406578064 3.704585552215576 1.990165591239929 3.678869009017944 1.967095851898193 3.647475719451904 C 1.944029331207275 3.616086959838867 1.926702260971069 3.579022884368896 1.916151404380798 3.536446094512939 L 1.385163068771362 1.393709659576416 C 1.368800401687622 1.327684283256531 1.370432734489441 1.25452184677124 1.387392520904541 1.178751945495605 C 1.404349327087402 1.102993845939636 1.436630368232727 1.024625182151794 1.48157000541687 0.948174774646759 C 1.526507019996643 0.8717303276062012 1.584102988243103 0.7971984148025513 1.651699662208557 0.7291050553321838 C 1.719295740127563 0.661011815071106 1.796895027160645 0.5993520617485046 1.881841540336609 0.5486515760421753 C 1.912349700927734 0.5304421782493591 1.942771553993225 0.5142643451690674 1.97292172908783 0.500091552734375 C 2.003072738647461 0.4859185218811035 2.032952308654785 0.4737501740455627 2.062380075454712 0.4635597467422485 C 2.091808319091797 0.4533684551715851 2.12078332901001 0.4451557099819183 2.149123907089233 0.4388934671878815 C 2.177464008331299 0.4326307475566864 2.205169677734375 0.4283186495304108 2.232057332992554 0.4259304404258728 C 2.28004002571106 0.4216681718826294 2.325420379638672 0.423530638217926 2.367160558700562 0.4313640892505646 C 2.408905029296875 0.4391984045505524 2.447009325027466 0.4530044794082642 2.480436325073242 0.4726287722587585 C 2.513866424560547 0.4922551512718201 2.542618989944458 0.5177009105682373 2.56565523147583 0.5488113760948181 C 2.588694095611572 0.5799251198768616 2.606013774871826 0.6167048811912537 2.616579055786133 0.6589968800544739 L 3.151562213897705 2.800549983978271 C 3.168150663375854 2.866951465606689 3.166661977767944 2.940524816513062 3.14975643157959 3.016714572906494 C 3.132849931716919 3.092914581298828 3.100527763366699 3.171726703643799 3.055459260940552 3.248594284057617 C 3.010385751724243 3.325467586517334 2.952566385269165 3.400389909744263 2.884674549102783 3.468801975250244 C 2.816781044006348 3.537214756011963 2.738820791244507 3.599111080169678 2.653469562530518 3.649933576583862 C 2.622818470001221 3.668184518814087 2.592255115509033 3.68438720703125 2.561964750289917 3.698569059371948 C 2.531674861907959 3.712750673294067 2.50165867805481 3.72491192817688 2.472098350524902 3.735079288482666 C 2.442539691925049 3.745246887207031 2.413437604904175 3.753421306610107 2.384974956512451 3.759631633758545 C 2.356515645980835 3.765841245651245 2.32869553565979 3.770087480545044 2.301699161529541 3.772396802902222 Z" stroke="none" fill="#fff"/>
        </g>
      </g>
    </g>
  </g>
</svg>
